<svg xmlns="http://www.w3.org/2000/svg" viewBox="0 0 120 120" role="img" aria-hidden="true">
  <circle cx="60" cy="60" r="54" fill="none" stroke="#f58a45" stroke-width="2.2"/>
  <path d="M18 78 Q38 62 60 66 Q82 70 102 58" fill="none" stroke="#f58a45" stroke-width="1.8" stroke-linecap="round"/>
  <path d="M44 78 L44 52 L56 44 L68 52 L68 78 Z" fill="none" stroke="#f58a45" stroke-width="1.8" stroke-linejoin="round"/>
  <path d="M50 78 L50 58 L62 50 L74 58 L74 78" fill="none" stroke="#f58a45" stroke-width="1.6" stroke-linejoin="round"/>
  <path d="M56 44 L60 34 L64 44" fill="none" stroke="#f58a45" stroke-width="1.8" stroke-linejoin="round"/>
  <line x1="60" y1="34" x2="60" y2="24" stroke="#f58a45" stroke-width="1.6" stroke-linecap="round"/>
  <path d="M60 24 L72 28 L60 32 L48 28 Z" fill="none" stroke="#f58a45" stroke-width="1.4" stroke-linejoin="round"/>
  <circle cx="88" cy="42" r="10" fill="none" stroke="#f58a45" stroke-width="1.6"/>
  <line x1="88" y1="32" x2="88" y2="24" stroke="#f58a45" stroke-width="1.4" stroke-linecap="round"/>
  <line x1="88" y1="52" x2="88" y2="58" stroke="#f58a45" stroke-width="1.4" stroke-linecap="round"/>
  <line x1="78" y1="42" x2="72" y2="42" stroke="#f58a45" stroke-width="1.4" stroke-linecap="round"/>
  <line x1="98" y1="42" x2="104" y2="42" stroke="#f58a45" stroke-width="1.4" stroke-linecap="round"/>
  <path d="M28 78 Q30 70 34 68 Q38 66 40 72" fill="none" stroke="#f58a45" stroke-width="1.4" stroke-linecap="round"/>
  <path d="M92 74 Q94 66 98 64 Q102 62 104 68" fill="none" stroke="#f58a45" stroke-width="1.4" stroke-linecap="round"/>
  <circle cx="34" cy="66" r="2" fill="#f58a45"/>
  <circle cx="98" cy="62" r="2" fill="#f58a45"/>
</svg>
