<svg xmlns="http://www.w3.org/2000/svg" viewBox="0 0 64 64" role="img" aria-label="Timbuktu Farming">
  <defs>
    <linearGradient id="g" x1="0" y1="0" x2="1" y2="1">
      <stop offset="0" stop-color="#0a5a2b"/>
      <stop offset="1" stop-color="#fe8340"/>
    </linearGradient>
  </defs>
  <rect x="6" y="6" width="52" height="52" rx="14" fill="#0b1f3a" opacity="0.06"/>
  <rect x="8" y="8" width="48" height="48" rx="13" fill="url(#g)"/>
  <path d="M22 38c10.5-1.3 17.8-8.8 20-20 2.8 10.8-3.2 23.3-17.6 26.3-4.9 1-9.2.2-12.4-1.7 2.4-1.8 5.5-3.4 10-4.6z" fill="#ffffff" opacity="0.95"/>
  <path d="M23 24c4.8-3.8 9.4-5.8 14-6.2-2 4.8-5.1 8.9-9.5 12.2-2.2 1.7-4.7 3.1-7.5 4.2.1-3.6 1.1-7 3-10.2z" fill="#ffffff" opacity="0.9"/>
</svg>
